<mxfile host="app.diagrams.net" modified="2023-06-05T10:30:32.328Z" agent="Mozilla/5.0 (Windows NT 10.0; Win64; x64) AppleWebKit/537.36 (KHTML, like Gecko) Chrome/113.0.0.0 Safari/537.36" version="21.3.7" etag="nyQg7q5iOawmCxegmACN" type="github">
  <diagram name="第 1 页" id="Sx-wmR1-2tHadoYTmS0v">
    <mxGraphModel>
      <root>
        <mxCell id="0" />
        <mxCell id="1" parent="0" />
      </root>
    </mxGraphModel>
  </diagram>
</mxfile>
